<svg width="150" height="150" viewBox="0 0 150 150" fill="none" xmlns="http://www.w3.org/2000/svg">
<rect width="150" height="150" rx="48" fill="#2DA3D6"/>
<rect width="150" height="150" rx="48" fill="url(#paint0_radial_507_12428)" fill-opacity="0.7"/>
<rect width="150" height="150" rx="48" fill="url(#paint1_radial_507_12428)" fill-opacity="0.5"/>
<mask id="mask0_507_12428" style="mask-type:alpha" maskUnits="userSpaceOnUse" x="25" y="25" width="100" height="101">
<ellipse cx="75" cy="75.0001" rx="50" ry="50.0001" fill="white"/>
</mask>
<g mask="url(#mask0_507_12428)">
<path d="M36.6117 109.776L46.5782 115.53L98.4022 25.7679L88.4357 20.0138L66.3213 58.3172L48.6017 29.5367L38.8019 35.5702L55.5612 62.791L22.2502 62.7762L22.245 74.2845L57.0936 74.3L36.6117 109.776Z" fill="white"/>
<path d="M66.0353 126.763L56.0689 121.009L107.893 31.2473L117.859 37.0015L95.7448 75.3049L129.529 76.2602L129.204 87.7639L97.2503 86.8603L113.919 115.701L103.955 121.46L86.5171 91.2877L66.0353 126.763Z" fill="white"/>
</g>
<defs>
<radialGradient id="paint0_radial_507_12428" cx="0" cy="0" r="1" gradientUnits="userSpaceOnUse" gradientTransform="translate(39.5833 31.25) rotate(51.0441) scale(125.917 125.917)">
<stop stop-color="white" stop-opacity="0.59"/>
<stop offset="0.697917" stop-color="white" stop-opacity="0"/>
<stop offset="1" stop-color="white" stop-opacity="0"/>
</radialGradient>
<radialGradient id="paint1_radial_507_12428" cx="0" cy="0" r="1" gradientTransform="matrix(-8.21918 -128.125 -138.129 81.9793 129.452 131.25)" gradientUnits="userSpaceOnUse">
<stop stop-opacity="0.23"/>
<stop offset="0.861815" stop-opacity="0"/>
</radialGradient>
</defs>
</svg>
