<svg width="94" height="32" viewBox="0 0 94 32" fill="none" xmlns="http://www.w3.org/2000/svg">
<g clip-path="url(#clip0_507_12416)">
<mask id="mask0_507_12416" style="mask-type:alpha" maskUnits="userSpaceOnUse" x="0" y="0" width="32" height="33">
<ellipse cx="16" cy="16.0001" rx="16" ry="16" fill="#D9D9D9"/>
</mask>
<g mask="url(#mask0_507_12416)">
<path d="M3.7158 27.1283L6.90506 28.9696L23.4887 0.245861L20.2995 -1.59546L13.2228 10.6616L7.55259 1.45187L4.41665 3.3826L9.77961 12.0932L-0.8799 12.0885L-0.881539 15.7711L10.27 15.7761L3.7158 27.1283Z" fill="#2DA3D6"/>
<path d="M13.1313 32.5644L9.94208 30.723L26.5257 1.99927L29.715 3.84059L22.6384 16.0977L33.4494 16.4034L33.3453 20.0846L23.1201 19.7954L28.454 29.0245L25.2656 30.8672L19.6855 21.2122L13.1313 32.5644Z" fill="#2DA3D6"/>
</g>
<path d="M42.3577 5.52654C42.6561 5.52654 42.8302 5.69232 42.8136 6.00731C42.7224 7.84749 42.051 9.11573 40.932 9.7457L43.1783 13.5587C43.369 13.8737 43.2281 14.1141 42.8634 14.1141H41.736C41.4874 14.1141 41.3133 14.0146 41.189 13.7991L39.0835 10.1767H37.8982V13.6499C37.8982 13.9483 37.7324 14.1141 37.434 14.1141H36.4642C36.1658 14.1141 36 13.9483 36 13.6499V2.47614C36 2.17773 36.1658 2.01195 36.4642 2.01195H37.434C37.7324 2.01195 37.8982 2.17773 37.8982 2.47614V8.55207H38.7188C39.871 8.55207 40.7911 7.86407 40.9237 5.99902C40.9486 5.69232 41.0978 5.52654 41.3962 5.52654H42.3577Z" fill="#2DA3D6"/>
<path d="M45.3936 10.4005C45.576 11.76 46.7033 12.7547 48.2202 12.7547C49.2646 12.7547 50.0438 12.4314 50.7815 11.8014C51.0053 11.6025 51.2291 11.6025 51.4364 11.8097L51.7928 12.1578C52.0083 12.3651 52.0249 12.5972 51.8177 12.8127C50.9307 13.7079 49.82 14.313 48.2451 14.313C45.3853 14.313 43.4705 12.3236 43.4705 9.8203C43.4705 7.32528 45.4433 5.3276 48.0793 5.3276C50.6738 5.3276 52.514 7.27554 52.514 9.65452C52.514 9.75399 52.5057 9.87004 52.4974 9.9778C52.4725 10.2596 52.2819 10.4005 52 10.4005H45.3936ZM48.071 6.88596C46.811 6.88596 45.7583 7.75631 45.4516 8.95824H50.5494C50.3091 7.75631 49.3475 6.88596 48.071 6.88596Z" fill="#2DA3D6"/>
<path d="M53.8773 5.99073C53.8773 5.69232 54.043 5.52654 54.3414 5.52654H55.303C55.6014 5.52654 55.7672 5.69232 55.7672 5.99073V15.1005C55.7672 17.0982 54.8637 17.9602 53.1147 17.9602C52.9903 17.9602 52.8494 17.9519 52.7251 17.9354C52.4432 17.9105 52.3023 17.7281 52.3023 17.4463V16.7749C52.3023 16.4765 52.3852 16.3107 52.5261 16.3107H52.7582C53.496 16.3107 53.8773 15.9791 53.8773 15.059V5.99073Z" fill="#2DA3D6"/>
<path d="M57.1275 9.8203C57.1275 7.32528 58.9014 5.3276 61.3218 5.3276C62.5734 5.3276 63.6179 5.84982 64.339 6.69531V5.99073C64.339 5.69232 64.5048 5.52654 64.8032 5.52654H65.7565C66.0549 5.52654 66.2207 5.69232 66.2207 5.99073V13.6499C66.2207 13.9483 66.0549 14.1141 65.7565 14.1141H64.8032C64.5048 14.1141 64.339 13.9483 64.339 13.6499V12.9536C63.6179 13.7908 62.5734 14.313 61.3218 14.313C58.9014 14.313 57.1275 12.3236 57.1275 9.8203ZM59.0423 9.8203C59.0423 11.3869 60.1862 12.6303 61.6948 12.6303C63.2034 12.6303 64.339 11.3869 64.339 9.8203C64.339 8.26195 63.22 7.01029 61.6948 7.01029C60.1696 7.01029 59.0423 8.26195 59.0423 9.8203Z" fill="#2DA3D6"/>
<path d="M72.1941 7.01029C70.9922 7.01029 69.9395 8.02985 69.9395 9.44729V13.6499C69.9395 13.9483 69.7737 14.1141 69.4753 14.1141H68.5055C68.2071 14.1141 68.0413 13.9483 68.0413 13.6499V5.99073C68.0413 5.69232 68.2071 5.52654 68.5055 5.52654H69.4753C69.7737 5.52654 69.9395 5.69232 69.9395 5.99073V6.71188C70.4866 5.91613 71.3818 5.3276 72.476 5.3276C72.592 5.3276 72.708 5.33589 72.8158 5.35247C73.0976 5.39391 73.222 5.58456 73.1971 5.87468L73.1308 6.66215C73.1059 6.98542 72.9236 7.09318 72.6169 7.04345C72.476 7.01858 72.335 7.01029 72.1941 7.01029Z" fill="#2DA3D6"/>
<path d="M54.6275 2.07821C54.7191 1.92091 54.9463 1.92091 55.038 2.07821L55.26 2.45934C55.2935 2.51696 55.3498 2.55782 55.4149 2.57193L55.846 2.66528C56.0239 2.7038 56.0941 2.91993 55.9728 3.05567L55.679 3.38456C55.6345 3.43429 55.6131 3.5004 55.6198 3.56675L55.6642 4.00556C55.6825 4.18667 55.4987 4.32024 55.3321 4.24684L54.9285 4.06898C54.8675 4.04209 54.798 4.04209 54.7369 4.06898L54.3333 4.24684C54.1668 4.32024 53.9829 4.18667 54.0013 4.00556L54.0457 3.56675C54.0524 3.5004 54.0309 3.43429 53.9865 3.38456L53.6926 3.05567C53.5713 2.91993 53.6415 2.7038 53.8195 2.66528L54.2505 2.57193C54.3157 2.55782 54.3719 2.51696 54.4055 2.45934L54.6275 2.07821Z" fill="#2DA3D6"/>
<path d="M61.5102 18.1271C61.6018 17.9698 61.8291 17.9698 61.9208 18.1271L62.1428 18.5083C62.1764 18.5659 62.2326 18.6068 62.2978 18.6209L62.729 18.7143C62.9069 18.7528 62.9772 18.969 62.8559 19.1048L62.5619 19.4338C62.5175 19.4835 62.496 19.5496 62.5027 19.616L62.5471 20.0549C62.5655 20.2361 62.3816 20.3697 62.215 20.2963L61.8113 20.1184C61.7502 20.0915 61.6807 20.0915 61.6197 20.1184L61.216 20.2963C61.0493 20.3697 60.8654 20.2361 60.8838 20.0549L60.9282 19.616C60.9349 19.5496 60.9135 19.4835 60.869 19.4338L60.5751 19.1048C60.4537 18.969 60.524 18.7528 60.7019 18.7143L61.1331 18.6209C61.1983 18.6068 61.2546 18.5659 61.2881 18.5083L61.5102 18.1271Z" fill="#2DA3D6"/>
<path d="M42.3593 21.2511C42.6578 21.2511 42.8319 21.417 42.8153 21.732C42.7241 23.5727 42.0525 24.8412 40.9332 25.4714L43.1801 29.2853C43.3708 29.6004 43.2299 29.8408 42.8651 29.8408H41.7375C41.4887 29.8408 41.3146 29.7413 41.1902 29.5257L39.0843 25.9025H37.8986V29.3765C37.8986 29.675 37.7328 29.8408 37.4343 29.8408H36.4643C36.1658 29.8408 36 29.675 36 29.3765V18.2C36 17.9015 36.1658 17.7357 36.4643 17.7357H37.4343C37.7328 17.7357 37.8986 17.9015 37.8986 18.2V24.2774H38.7195C39.8719 24.2774 40.7923 23.5893 40.9249 21.7237C40.9498 21.417 41.099 21.2511 41.3975 21.2511H42.3593Z" fill="#2DA3D6"/>
<path d="M43.4724 25.546C43.4724 23.0503 45.2467 21.0522 47.6677 21.0522C48.9197 21.0522 49.9644 21.5745 50.6857 22.4202V21.7154C50.6857 21.417 50.8515 21.2511 51.15 21.2511H52.1035C52.402 21.2511 52.5678 21.417 52.5678 21.7154V29.3765C52.5678 29.675 52.402 29.8408 52.1035 29.8408H51.15C50.8515 29.8408 50.6857 29.675 50.6857 29.3765V28.68C49.9644 29.5174 48.9197 30.0398 47.6677 30.0398C45.2467 30.0398 43.4724 28.0499 43.4724 25.546ZM45.3876 25.546C45.3876 27.113 46.5318 28.3567 48.0408 28.3567C49.5498 28.3567 50.6857 27.113 50.6857 25.546C50.6857 23.9872 49.5664 22.7353 48.0408 22.7353C46.5152 22.7353 45.3876 23.9872 45.3876 25.546Z" fill="#2DA3D6"/>
<path d="M58.5428 22.7353C57.3405 22.7353 56.2876 23.7551 56.2876 25.1729V29.3765C56.2876 29.675 56.1217 29.8408 55.8233 29.8408H54.8532C54.5547 29.8408 54.3889 29.675 54.3889 29.3765V21.7154C54.3889 21.417 54.5547 21.2511 54.8532 21.2511H55.8233C56.1217 21.2511 56.2876 21.417 56.2876 21.7154V22.4368C56.8348 21.6408 57.7302 21.0522 58.8247 21.0522C58.9407 21.0522 59.0568 21.0604 59.1646 21.077C59.4465 21.1185 59.5709 21.3092 59.546 21.5994L59.4797 22.387C59.4548 22.7104 59.2724 22.8182 58.9656 22.7684C58.8247 22.7436 58.6837 22.7353 58.5428 22.7353Z" fill="#2DA3D6"/>
<path d="M60.72 21.7154C60.72 21.417 60.8858 21.2511 61.1843 21.2511H62.146C62.4445 21.2511 62.6104 21.417 62.6104 21.7154V29.3765C62.6104 29.675 62.4445 29.8408 62.146 29.8408H61.1843C60.8858 29.8408 60.72 29.675 60.72 29.3765V21.7154Z" fill="#2DA3D6"/>
<path d="M68.7053 22.7353C67.5031 22.7353 66.4501 23.7551 66.4501 25.1729V29.3765C66.4501 29.675 66.2843 29.8408 65.9858 29.8408H65.0157C64.7172 29.8408 64.5514 29.675 64.5514 29.3765V21.7154C64.5514 21.417 64.7172 21.2511 65.0157 21.2511H65.9858C66.2843 21.2511 66.4501 21.417 66.4501 21.7154V22.4368C66.9973 21.6408 67.8927 21.0522 68.9872 21.0522C69.1032 21.0522 69.2193 21.0604 69.3271 21.077C69.609 21.1185 69.7334 21.3092 69.7085 21.5994L69.6422 22.387C69.6173 22.7104 69.4349 22.8182 69.1281 22.7684C68.9872 22.7436 68.8462 22.7353 68.7053 22.7353Z" fill="#2DA3D6"/>
<path d="M80.8899 21.0522C82.7554 21.0522 84.1815 22.4285 84.1815 24.5427V29.3765C84.1815 29.675 84.0157 29.8408 83.7172 29.8408H82.7471C82.4487 29.8408 82.2828 29.675 82.2828 29.3765V24.7086C82.2828 23.5478 81.5615 22.7353 80.5002 22.7353C79.4307 22.7353 78.4192 23.8131 78.4192 25.1148V29.3765C78.4192 29.675 78.2533 29.8408 77.9549 29.8408H76.9848C76.6863 29.8408 76.5205 29.675 76.5205 29.3765V24.7086C76.5205 23.5478 75.7991 22.7353 74.7379 22.7353C73.7181 22.7353 72.6568 23.7136 72.6568 25.1148V29.3765C72.6568 29.675 72.491 29.8408 72.1925 29.8408H71.2224C70.9239 29.8408 70.7581 29.675 70.7581 29.3765V21.7154C70.7581 21.417 70.9239 21.2511 71.2224 21.2511H72.1925C72.491 21.2511 72.6568 21.417 72.6568 21.7154V22.3704C73.2538 21.5745 74.1243 21.0522 75.1276 21.0522C76.421 21.0522 77.5071 21.7237 78.0461 22.8348C78.6181 21.7569 79.6628 21.0522 80.8899 21.0522Z" fill="#2DA3D6"/>
<path d="M89.0895 30.0315C87.025 30.0315 85.657 28.6635 85.657 26.5492V21.7154C85.657 21.417 85.8228 21.2511 86.1213 21.2511H87.083C87.3815 21.2511 87.5474 21.417 87.5474 21.7154V26.3834C87.5474 27.5441 88.335 28.3567 89.4792 28.3567C90.6731 28.3567 91.7012 27.3534 91.7012 25.9274V21.7154C91.7012 21.417 91.867 21.2511 92.1655 21.2511H93.1356C93.4341 21.2511 93.5999 21.417 93.5999 21.7154V29.3765C93.5999 29.675 93.4341 29.8408 93.1356 29.8408H92.1655C91.867 29.8408 91.7012 29.675 91.7012 29.3765V28.7049C91.1208 29.4926 90.1839 30.0315 89.0895 30.0315Z" fill="#2DA3D6"/>
</g>
<defs>
<clipPath id="clip0_507_12416">
<rect width="93.5999" height="32" fill="white"/>
</clipPath>
</defs>
</svg>
